<svg width="48" height="48" viewBox="0 0 48 48" fill="none" xmlns="http://www.w3.org/2000/svg">
<path d="M24 46C36.1503 46 46 36.1503 46 24C46 11.8497 36.1503 2 24 2C11.8497 2 2 11.8497 2 24C2 36.1503 11.8497 46 24 46Z" stroke="#96D6FF" stroke-width="4"/>
<path fill-rule="evenodd" clip-rule="evenodd" d="M32.9887 13.921L29.8459 32.7778C29.8049 33.0151 29.674 33.1992 29.453 33.3302C29.3384 33.3957 29.2116 33.4284 29.0724 33.4284C28.9824 33.4284 28.8842 33.4079 28.7778 33.367L23.2165 31.0959L20.2456 34.7174C20.0983 34.9057 19.8978 34.9998 19.6441 34.9998C19.5377 34.9998 19.4476 34.9834 19.374 34.9507C19.2185 34.8934 19.0937 34.7972 18.9995 34.6622C18.9054 34.5272 18.8584 34.3778 18.8584 34.2141V29.9296L29.4653 16.9287L16.3417 28.2845L11.4924 26.2957C11.1896 26.1812 11.0259 25.9561 11.0014 25.6205C10.985 25.2931 11.1159 25.0517 11.3942 24.8962L31.8224 13.1107C31.9452 13.0371 32.0761 13.0002 32.2152 13.0002C32.3789 13.0002 32.5262 13.0452 32.6572 13.1353C32.9273 13.3317 33.0378 13.5936 32.9887 13.921Z" fill="#96D6FF"/>
</svg>
